<?xml version="1.0" encoding="UTF-8" standalone="no"?>
<!-- Created with Inkscape (http://www.inkscape.org/) -->

<svg
   width="16"
   height="16"
   id="svg2"
   sodipodi:version="0.32"
   inkscape:version="1.1.2 (0a00cf5339, 2022-02-04)"
   version="1.0"
   sodipodi:docname="brightness.svg"
   inkscape:output_extension="org.inkscape.output.svg.inkscape"
   style="display:inline"
   xmlns:inkscape="http://www.inkscape.org/namespaces/inkscape"
   xmlns:sodipodi="http://sodipodi.sourceforge.net/DTD/sodipodi-0.dtd"
   xmlns="http://www.w3.org/2000/svg"
   xmlns:svg="http://www.w3.org/2000/svg"
   xmlns:rdf="http://www.w3.org/1999/02/22-rdf-syntax-ns#"
   xmlns:cc="http://creativecommons.org/ns#"
   xmlns:dc="http://purl.org/dc/elements/1.1/">
  <defs
     id="defs4" />
  <sodipodi:namedview
     id="base"
     pagecolor="#ffffff"
     bordercolor="#e7e7e7"
     borderopacity="1"
     inkscape:pageopacity="0.0"
     inkscape:pageshadow="2"
     inkscape:zoom="44.218752"
     inkscape:cx="12.155476"
     inkscape:cy="7.5985862"
     inkscape:document-units="px"
     inkscape:current-layer="layer1"
     showgrid="true"
     inkscape:showpageshadow="false"
     showguides="false"
     inkscape:guide-bbox="true"
     inkscape:window-width="1920"
     inkscape:window-height="1055"
     inkscape:window-x="0"
     inkscape:window-y="25"
     inkscape:window-maximized="1"
     inkscape:snap-global="true"
     inkscape:pagecheckerboard="0">
    <sodipodi:guide
       orientation="1,0"
       position="0,112"
       id="guide2383" />
    <sodipodi:guide
       orientation="0,1"
       position="26.278146,128"
       id="guide2385" />
    <sodipodi:guide
       orientation="1,0"
       position="128,54.082119"
       id="guide2387" />
    <sodipodi:guide
       orientation="0,1"
       position="78.156291,0"
       id="guide2389" />
    <sodipodi:guide
       orientation="0,1"
       position="60.863576,64.084768"
       id="guide2391" />
    <inkscape:grid
       type="xygrid"
       id="grid3672"
       visible="true"
       enabled="true"
       empspacing="8"
       snapvisiblegridlinesonly="true" />
  </sodipodi:namedview>
  <metadata
     id="metadata7">
    <rdf:RDF>
      <cc:Work
         rdf:about="">
        <dc:format>image/svg+xml</dc:format>
        <dc:type
           rdf:resource="http://purl.org/dc/dcmitype/StillImage" />
        <dc:title />
      </cc:Work>
    </rdf:RDF>
  </metadata>
  <g
     inkscape:label="Icon"
     inkscape:groupmode="layer"
     id="layer1"
     style="display:inline"
     transform="translate(0,-6)">
    <path
       style="color:#000000;fill:#bebebe;fill-opacity:1;fill-rule:nonzero;stroke:none;stroke-width:1.5;marker:none;visibility:visible;display:inline;overflow:visible;enable-background:accumulate"
       d="m -12,6 -1,3 2,0 -1,-3 z m -5.65625,2.34375 1.40625,2.8125 1.40625,-1.40625 -2.8125,-1.40625 z m 11.3125,0 L -9.15625,9.75 -7.75,11.15625 -6.34375,8.34375 z M -12,10 c -2.209139,0 -4,1.790861 -4,4 0,2.209139 1.790861,4 4,4 2.209139,0 4,-1.790861 4,-4 0,-2.209139 -1.790861,-4 -4,-4 z m 0,1.5 c 1.380712,0 2.5,1.119288 2.5,2.5 0,1.380712 -1.119288,2.5 -2.5,2.5 -1.380712,0 -2.5,-1.119288 -2.5,-2.5 0,-1.380712 1.119288,-2.5 2.5,-2.5 z m -5,1.5 -3,1 3,1 0,-2 z m 10,0 0,2 3,-1 -3,-1 z m -9.25,3.84375 -1.40625,2.8125 2.8125,-1.40625 -1.40625,-1.40625 z m 8.5,0 -1.40625,1.40625 2.8125,1.40625 L -7.75,16.84375 z M -13,19 l 1,3 1,-3 -2,0 z"
       id="path3085"
       inkscape:connector-curvature="0" />
    <path
       id="path3102"
       d="m 8,30 c -2.209139,0 -4,1.790861 -4,4 0,2.209139 1.790861,4 4,4 2.209139,0 4,-1.790861 4,-4 0,-2.209139 -1.790861,-4 -4,-4 z m 0,2 c 1.1045695,0 2,0.89543 2,2 0,1.104569 -0.8954305,2 -2,2 -1.1045695,0 -2,-0.895431 -2,-2 0,-1.10457 0.8954305,-2 2,-2 z"
       style="opacity:0.35;color:#000000;fill:#000000;fill-opacity:1;fill-rule:nonzero;stroke:none;stroke-width:1.5;marker:none;visibility:visible;display:inline;overflow:visible;enable-background:accumulate"
       inkscape:connector-curvature="0" />
    <path
       inkscape:transform-center-y="-6.5"
       sodipodi:nodetypes="cccc"
       inkscape:connector-curvature="0"
       id="path3104"
       d="m 6,29 4,0 -2,-3 z"
       style="fill:#808080;stroke:none" />
    <path
       inkscape:transform-center-y="-2.4999999"
       inkscape:transform-center-x="-5.1291655"
       style="fill:#808080;stroke:none"
       d="m 11.330127,29.767949 2,3.464102 L 14.928204,30 z"
       id="path3106"
       inkscape:connector-curvature="0"
       sodipodi:nodetypes="cccc" />
    <path
       sodipodi:nodetypes="cccc"
       inkscape:connector-curvature="0"
       id="path3108"
       d="m 13.330127,34.767949 -2,3.464102 L 14.928203,38 z"
       style="fill:#808080;stroke:none"
       inkscape:transform-center-x="-5.129165"
       inkscape:transform-center-y="2.5" />
    <path
       inkscape:transform-center-y="6.5"
       style="fill:#808080;stroke:none"
       d="m 10,39 -4.0000002,0 2.0000001,3 z"
       id="path3110"
       inkscape:connector-curvature="0"
       sodipodi:nodetypes="cccc" />
    <path
       inkscape:transform-center-x="5.1291651"
       sodipodi:nodetypes="cccc"
       inkscape:connector-curvature="0"
       id="path3112"
       d="M 4.6698729,38.232051 2.6698728,34.767949 1.0717967,38 z"
       style="fill:#808080;stroke:none"
       inkscape:transform-center-y="2.5" />
    <path
       inkscape:transform-center-y="-2.5"
       style="fill:#808080;stroke:none"
       d="M 2.6698727,33.232051 4.669873,29.767949 1.0717967,30 z"
       id="path3114"
       inkscape:connector-curvature="0"
       sodipodi:nodetypes="cccc"
       inkscape:transform-center-x="5.129165" />
    <path
       style="color:#000000;fill:#bebebe;fill-opacity:1;fill-rule:nonzero;stroke:none;stroke-width:1.5;marker:none;visibility:visible;display:inline;overflow:visible;enable-background:accumulate"
       d="M 5.84375 0 L 5.09375 2.96875 L 2.15625 2.15625 L 2.96875 5.09375 L 0 5.84375 L 2.1875 8 L 0 10.15625 L 2.96875 10.90625 L 2.15625 13.84375 L 5.09375 13.03125 L 5.84375 16 L 8 13.8125 L 10.15625 16 L 10.90625 13.03125 L 13.84375 13.84375 L 13.03125 10.90625 L 16 10.15625 L 13.8125 8 L 16 5.84375 L 13.03125 5.09375 L 13.84375 2.15625 L 10.90625 2.96875 L 10.15625 0 L 8 2.1875 L 5.84375 0 z M 8 3 C 10.761424 3 13 5.2385763 13 8 C 13 10.761424 10.761424 13 8 13 L 8 3 z "
       transform="translate(0,6)"
       id="path3075" />
    <path
       style="fill:#bb6870;stroke:#bb6870;stroke-width:0.0226148;fill-opacity:1;stroke-opacity:1"
       d="M 10.062822,15.893338 C 10.021767,15.846277 9.5406734,15.354911 8.9937258,14.801413 L 7.9992757,13.795052 6.9301825,14.880565 C 6.3421813,15.477596 5.8564011,15.960989 5.8506712,15.95477 5.8449412,15.94857 5.6748951,15.287066 5.4727913,14.484805 5.2706874,13.682544 5.1039523,13.024353 5.1022688,13.022159 c -0.00168,-0.0022 -0.6593209,0.177632 -1.4614166,0.399611 -0.8020957,0.22198 -1.4600234,0.401867 -1.4620613,0.399749 -0.00204,-0.0021 0.1778808,-0.66008 0.3998192,-1.462136 0.2219384,-0.802057 0.4016608,-1.459934 0.399383,-1.461948 -0.00338,-0.003 -1.3473506,-0.343113 -2.65007792,-0.670659 -0.14925794,-0.03753 -0.27644699,-0.07261 -0.28264233,-0.07797 -0.0061953,-0.0054 0.47719687,-0.4917308 1.07420495,-1.0808366 L 2.2049469,7.99687 1.9561837,7.7526503 C 1.8193639,7.6183294 1.3299526,7.1352294 0.8686031,6.6790947 L 0.02978578,5.8497587 0.29192468,5.7830406 C 0.43610107,5.7463456 1.0883392,5.5815908 1.7413427,5.4169188 2.3943462,5.2522468 2.9401379,5.1109507 2.9542132,5.1029271 2.9718068,5.0928981 2.8545059,4.636013 2.5788745,3.6409892 2.3583626,2.8449469 2.1843334,2.1909907 2.1921427,2.1877534 c 0.00781,-0.00324 0.6588317,0.1723103 1.4467164,0.3901059 0.787885,0.2177958 1.4398869,0.3959922 1.4488933,0.3959922 0.00901,0 0.1832822,-0.661424 0.3872796,-1.469831 0.2039973,-0.80840702 0.3765431,-1.46734693 0.383435,-1.46431089 0.00689,0.003036 0.4902843,0.49168433 1.0742049,1.08588509 l 1.061674,1.080365 1.0776076,-1.0911418 1.0776075,-1.09114188 0.02351,0.08992877 c 0.01293,0.0494608 0.178433,0.70561779 0.367776,1.45812661 0.189344,0.7525088 0.351617,1.3767037 0.360607,1.3871 0.009,0.010396 0.665028,-0.1604573 1.457862,-0.3796745 0.792835,-0.2192172 1.44584,-0.3942543 1.451123,-0.3889714 0.0053,0.00528 -0.169851,0.6581918 -0.389186,1.4509087 -0.219335,0.7927166 -0.39033,1.4485852 -0.379989,1.4574855 0.01034,0.0089 0.639578,0.1722717 1.398306,0.363048 0.758728,0.1907763 1.414863,0.3563992 1.458077,0.3680508 l 0.07857,0.021185 -1.091056,1.0773949 -1.091057,1.0773949 1.08033,1.0616741 c 0.594181,0.5839206 1.08285,1.0673126 1.085931,1.0742046 0.0031,0.0069 -0.655859,0.179525 -1.464311,0.383629 -0.808452,0.204104 -1.469912,0.379254 -1.469912,0.389222 0,0.01 0.178153,0.662012 0.395896,1.448987 0.217743,0.786974 0.393291,1.437005 0.390106,1.444513 -0.0032,0.0075 -0.657098,-0.166855 -1.45314,-0.387474 -1.275095,-0.353387 -1.449388,-0.396681 -1.464474,-0.363772 -0.0094,0.02055 -0.179904,0.682753 -0.378858,1.471573 -0.198954,0.788819 -0.365441,1.437924 -0.369972,1.442455 -0.0045,0.0045 -0.04183,-0.03027 -0.08288,-0.07733 z M 8.7293282,12.956127 C 10.021657,12.770621 11.23285,12.048165 12.015387,10.996046 12.870379,9.8465133 13.191952,8.3898695 12.902715,6.9766781 12.547286,5.2400712 11.260985,3.799308 9.5726304,3.2467088 9.0885738,3.0882767 8.572824,2.9970907 8.1583035,2.9966517 l -0.175265,-1.854e-4 v 5.0124058 5.0124059 l 0.254417,-0.01553 c 0.1399293,-0.0085 0.361272,-0.03087 0.4918727,-0.04962 z"
       id="path874"
       transform="translate(0,6)" />
  </g>
</svg>
