<?xml version="1.0" encoding="UTF-8" standalone="no"?>
<svg
   width="16"
   viewBox="0 0 16 16"
   height="16"
   id="svg2"
   version="1.1"
   inkscape:version="1.1.2 (0a00cf5339, 2022-02-04)"
   sodipodi:docname="audio-volume-muted-symbolic.svg"
   xmlns:inkscape="http://www.inkscape.org/namespaces/inkscape"
   xmlns:sodipodi="http://sodipodi.sourceforge.net/DTD/sodipodi-0.dtd"
   xmlns="http://www.w3.org/2000/svg"
   xmlns:svg="http://www.w3.org/2000/svg"
   xmlns:rdf="http://www.w3.org/1999/02/22-rdf-syntax-ns#"
   xmlns:cc="http://creativecommons.org/ns#"
   xmlns:dc="http://purl.org/dc/elements/1.1/">
  <metadata
     id="metadata30">
    <rdf:RDF>
      <cc:Work
         rdf:about="">
        <dc:format>image/svg+xml</dc:format>
        <dc:type
           rdf:resource="http://purl.org/dc/dcmitype/StillImage" />
        <dc:title />
      </cc:Work>
    </rdf:RDF>
  </metadata>
  <sodipodi:namedview
     pagecolor="#ffffff"
     bordercolor="#666666"
     borderopacity="1"
     objecttolerance="10"
     gridtolerance="10"
     guidetolerance="10"
     inkscape:pageopacity="0"
     inkscape:pageshadow="2"
     inkscape:window-width="1920"
     inkscape:window-height="1055"
     id="namedview28"
     showgrid="true"
     inkscape:zoom="38.125"
     inkscape:cx="3.4229508"
     inkscape:cy="7.9213115"
     inkscape:window-x="0"
     inkscape:window-y="25"
     inkscape:window-maximized="1"
     inkscape:current-layer="svg2"
     showguides="true"
     inkscape:snap-intersection-paths="false"
     inkscape:object-paths="false"
     inkscape:pagecheckerboard="0">
    <inkscape:grid
       type="xygrid"
       id="grid4158" />
  </sodipodi:namedview>
  <defs
     id="defs4" />
  <path
     d="M 6,2 2,6 2,10 6,14 6,9 7,8 6,7 Z"
     id="path18"
     inkscape:connector-curvature="0"
     style="fill:#bebebe"
     sodipodi:nodetypes="cccccccc" />
  <path
     d="M 1.300003,5 C 0.216589,5 0,6.163269 0,7.4 L 0,8.6 C 0,9.836747 0.24312,11 1.300003,11 L 3,11 3,5 Z"
     id="path20"
     inkscape:connector-curvature="0"
     style="fill:#bebebe"
     sodipodi:nodetypes="ssssccs" />
  <path
     style="opacity:0.3;fill:#bebebe;fill-opacity:1;fill-rule:evenodd;stroke:none;stroke-width:1px;stroke-linecap:butt;stroke-linejoin:miter;stroke-opacity:1"
     d="M 13.140638,1 11.726417,2.413582 C 12.808349,3.4955144 13.990412,5.4467621 14,8 c 0,2.551493 -1.192916,4.505751 -2.273583,5.586418 L 13.140638,15 C 14.595711,13.544927 16.019176,11 16,8 16.035061,5 14.595117,2.4544787 13.140638,1 Z"
     id="path4508"
     inkscape:connector-curvature="0"
     sodipodi:nodetypes="ccccccc" />
  <path
     style="opacity:0.3;fill:#bebebe;fill-opacity:1;fill-rule:evenodd;stroke:none;stroke-width:1px;stroke-linecap:butt;stroke-linejoin:miter;stroke-opacity:1"
     d="M 11,3.1156678 9.5897193,4.5261118 C 10.372347,5.3087395 11,6.5690611 11,8 11,9.4309388 10.372767,10.690952 9.5897193,11.474 L 11,12.884 C 12.275645,11.608355 13,9.854095 13,8 13,6.1543677 12.273068,4.3887355 11,3.1156678 Z"
     id="path4529"
     inkscape:connector-curvature="0"
     sodipodi:nodetypes="ccccccc" />
  <path
     style="opacity:0.3;fill:#bebebe;fill-opacity:1;fill-rule:evenodd;stroke:none;stroke-width:1px;stroke-linecap:butt;stroke-linejoin:miter;stroke-opacity:1"
     d="M 8.629,5 7.2094668,6.4096296 C 8,7.05621 8,7.805653 8,8 8,8.1932576 7.982199,8.9408674 7.209,9.59 L 8.6289063,11 C 9.8466375,9.952694 10,8.5984701 10,8 10,7.400497 9.854476,6.062891 8.629,5 Z"
     id="path4569"
     inkscape:connector-curvature="0"
     sodipodi:nodetypes="ccscccc" />
  <path
     style="fill:#a683ba;stroke:none;stroke-width:0.0262295;fill-opacity:1"
     d="m 4.4864687,12.460241 -1.4807446,-1.48092 -1.0110587,-0.0077 -1.01105884,-0.0077 -0.15206424,-0.07462 c -0.37272181,-0.182903 -0.61835063,-0.59796 -0.7397226,-1.2499567 -0.11715805,-0.6293598 -0.11715805,-2.6755583 0,-3.3049181 C 0.21234096,5.6869999 0.43854801,5.3038956 0.80763969,5.1221133 l 0.17471215,-0.086048 1.01046346,-0.00738 1.0104634,-0.00738 1.4885246,-1.487616 1.4885246,-1.487616 v 2.478862 2.4788612 L 6.4786951,7.5016459 6.977062,7.9994951 6.4788299,8.4982193 5.9805975,8.9969435 l -0.00669,2.4721095 -0.00669,2.472109 z"
     id="path2141" />
  <path
     style="fill:#a683ba;fill-opacity:1;stroke-width:0.0262295"
     d="m 4.4818408,12.42981 -1.4591428,-1.459512 -1.0195458,-0.012 -1.01954564,-0.012 -0.14319903,-0.06987 C 0.55013508,10.734793 0.33440422,10.442814 0.19769661,10.006557 0.05559978,9.5531032 0.04130441,9.3720721 0.0402818,8.0131148 0.03961553,7.1277002 0.04917327,6.6989102 0.0733149,6.5311475 0.17879028,5.7981878 0.40611544,5.3613608 0.79424915,5.1458035 L 0.95737705,5.0552076 1.9885031,5.0439318 3.0196291,5.0326563 4.4999785,3.5524807 5.9803279,2.0723052 v 2.4788674 2.4788673 l 0.4852527,0.484721 0.4852527,0.4847208 -0.4915494,0.4920606 -0.4915491,0.4920603 -0.00776,2.3934444 c -0.00427,1.316395 -0.010289,2.420182 -0.013376,2.45286 -0.00452,0.04785 -0.2895984,-0.224643 -1.4647543,-1.400097 z"
     id="path2217" />
</svg>
