<?xml version="1.0" encoding="UTF-8" standalone="no"?>
<svg
   width="24"
   height="24"
   version="1.1"
   id="svg9"
   sodipodi:docname="down.svg"
   inkscape:version="1.1.2 (0a00cf5339, 2022-02-04)"
   xmlns:inkscape="http://www.inkscape.org/namespaces/inkscape"
   xmlns:sodipodi="http://sodipodi.sourceforge.net/DTD/sodipodi-0.dtd"
   xmlns="http://www.w3.org/2000/svg"
   xmlns:svg="http://www.w3.org/2000/svg">
  <sodipodi:namedview
     id="namedview11"
     pagecolor="#ffffff"
     bordercolor="#666666"
     borderopacity="1.0"
     inkscape:pageshadow="2"
     inkscape:pageopacity="0.0"
     inkscape:pagecheckerboard="0"
     showgrid="false"
     inkscape:zoom="36.041667"
     inkscape:cx="6.534104"
     inkscape:cy="11.986127"
     inkscape:window-width="1920"
     inkscape:window-height="1055"
     inkscape:window-x="0"
     inkscape:window-y="25"
     inkscape:window-maximized="1"
     inkscape:current-layer="svg9" />
  <defs
     id="defs3">
    <style
       id="current-color-scheme"
       type="text/css">
   .ColorScheme-Text { color:#dfdfdf; } .ColorScheme-Highlight { color:#4285f4; }
  </style>
  </defs>
  <g
     transform="matrix(1,0,0,1,4,4)"
     id="g7">
    <path
       class="ColorScheme-Text"
       d="M 7,2 V 10 L 3.5,6.5 2,8 8,14 14,8 12.5,6.5 9,10 V 2 Z"
       style="fill:currentColor"
       id="path5" />
  </g>
  <path
     style="fill:#d1ab6f;stroke:#d1ab6f;stroke-width:0.0277457;fill-opacity:1;stroke-opacity:1"
     d="m 8.9896037,14.982667 -2.9825541,-2.982651 0.7421311,-0.742131 0.742131,-0.742131 1.7411312,1.740967 c 0.9576221,0.957532 1.7504591,1.740967 1.7618591,1.740967 0.0114,0 0.02073,-1.797919 0.02073,-3.995376 V 6.0069364 H 12 12.984971 v 3.9953756 c 0,2.197457 0.0093,3.995376 0.02073,3.995376 0.0114,0 0.804237,-0.783435 1.761859,-1.740967 l 1.741131,-1.740967 0.742131,0.742131 0.742131,0.742131 -2.982554,2.982651 C 13.369992,16.623125 12.015313,17.965318 12,17.965318 c -0.01531,0 -1.369992,-1.342193 -3.0103963,-2.982651 z"
     id="path1090" />
</svg>
