<?xml version="1.0" encoding="UTF-8" standalone="no"?>
<svg
   width="24"
   height="24"
   version="1.1"
   id="svg835"
   sodipodi:docname="up.svg"
   inkscape:version="1.1.2 (0a00cf5339, 2022-02-04)"
   xmlns:inkscape="http://www.inkscape.org/namespaces/inkscape"
   xmlns:sodipodi="http://sodipodi.sourceforge.net/DTD/sodipodi-0.dtd"
   xmlns="http://www.w3.org/2000/svg"
   xmlns:svg="http://www.w3.org/2000/svg">
  <sodipodi:namedview
     id="namedview837"
     pagecolor="#ffffff"
     bordercolor="#666666"
     borderopacity="1.0"
     inkscape:pageshadow="2"
     inkscape:pageopacity="0.0"
     inkscape:pagecheckerboard="0"
     showgrid="false"
     inkscape:zoom="36.041667"
     inkscape:cx="6.534104"
     inkscape:cy="11.986127"
     inkscape:window-width="1920"
     inkscape:window-height="1055"
     inkscape:window-x="0"
     inkscape:window-y="25"
     inkscape:window-maximized="1"
     inkscape:current-layer="svg835" />
  <defs
     id="defs829">
    <style
       id="current-color-scheme"
       type="text/css">
   .ColorScheme-Text { color:#dfdfdf; } .ColorScheme-Highlight { color:#4285f4; }
  </style>
  </defs>
  <g
     transform="matrix(1,0,0,1,4,4)"
     id="g833">
    <path
       class="ColorScheme-Text"
       d="M 7,14 V 6 L 3.5,9.5 2,8 8,2 14,8 12.5,9.5 9,6 V 14 Z"
       style="fill:currentColor"
       id="path831" />
  </g>
  <path
     style="fill:#d1ab6f;stroke:#d1ab6f;stroke-width:0.0277457;fill-opacity:1;stroke-opacity:1"
     d="m 11.015029,13.997688 c 0,-2.197457 -0.0093,-3.995376 -0.02073,-3.995376 -0.0114,0 -0.804237,0.783435 -1.7618591,1.740967 L 7.4913117,13.484246 6.7491807,12.742115 6.0070496,11.999984 8.9896037,9.0173327 C 10.630008,7.3768749 11.984687,6.0346821 12,6.0346821 c 0.01531,0 1.369992,1.3421928 3.010396,2.9826506 l 2.982554,2.9826513 -0.742131,0.742131 -0.742131,0.742131 -1.741131,-1.740967 c -0.957622,-0.957532 -1.750459,-1.740967 -1.761859,-1.740967 -0.0114,0 -0.02073,1.797919 -0.02073,3.995376 v 3.995376 H 12 11.015029 Z"
     id="path933" />
</svg>
